<?xml version="1.0" encoding="utf-8"?><svg xmlns="http://www.w3.org/2000/svg" xmlns:xlink="http://www.w3.org/1999/xlink"><symbol viewBox="0 0 512 512" id="arrow-right" xmlns="http://www.w3.org/2000/svg"><path d="M506.134 241.843l-.018-.019-104.504-104c-7.829-7.791-20.492-7.762-28.285.068-7.792 7.829-7.762 20.492.067 28.284L443.558 236H20c-11.046 0-20 8.954-20 20s8.954 20 20 20h423.557l-70.162 69.824c-7.829 7.792-7.859 20.455-.067 28.284 7.793 7.831 20.457 7.858 28.285.068l104.504-104 .018-.019c7.833-7.818 7.808-20.522-.001-28.314z" fill="#9f9f9f" data-original="#000000" xmlns="http://www.w3.org/2000/svg"/></symbol><symbol viewBox="0 0 475.2 475.2" id="cancel" xmlns="http://www.w3.org/2000/svg"><path d="M405.6 69.6C360.7 24.7 301.1 0 237.6 0s-123.1 24.7-168 69.6S0 174.1 0 237.6s24.7 123.1 69.6 168 104.5 69.6 168 69.6 123.1-24.7 168-69.6 69.6-104.5 69.6-168-24.7-123.1-69.6-168zm-19.1 316.9c-39.8 39.8-92.7 61.7-148.9 61.7s-109.1-21.9-148.9-61.7c-82.1-82.1-82.1-215.7 0-297.8C128.5 48.9 181.4 27 237.6 27s109.1 21.9 148.9 61.7c82.1 82.1 82.1 215.7 0 297.8z"/><path d="M342.3 132.9c-5.3-5.3-13.8-5.3-19.1 0l-85.6 85.6-85.6-85.6c-5.3-5.3-13.8-5.3-19.1 0-5.3 5.3-5.3 13.8 0 19.1l85.6 85.6-85.6 85.6c-5.3 5.3-5.3 13.8 0 19.1 2.6 2.6 6.1 4 9.5 4s6.9-1.3 9.5-4l85.6-85.6 85.6 85.6c2.6 2.6 6.1 4 9.5 4 3.5 0 6.9-1.3 9.5-4 5.3-5.3 5.3-13.8 0-19.1l-85.4-85.6 85.6-85.6c5.3-5.3 5.3-13.8 0-19.1z"/></symbol><symbol viewBox="0 0 512 512" id="email" xmlns="http://www.w3.org/2000/svg"><path xmlns="http://www.w3.org/2000/svg" d="M0 192l246.528 156.896c2.816 2.08 6.144 3.104 9.472 3.104s6.656-1.024 9.472-3.104L512 192 265.6 3.2a16.032 16.032 0 00-19.2 0L0 192z" fill="#74b0ef" data-original="#64b5f6"/><path xmlns="http://www.w3.org/2000/svg" d="M416 0H96C78.368 0 64 14.368 64 32v352c0 8.832 7.168 16 16 16h352c8.832 0 16-7.168 16-16V32c0-17.632-14.336-32-32-32z" fill="#eceff1" data-original="#eceff1"/><path d="M144 96h224c8.832 0 16-7.168 16-16s-7.168-16-16-16H144c-8.832 0-16 7.168-16 16s7.168 16 16 16zm224 32H144c-8.832 0-16 7.168-16 16s7.168 16 16 16h224c8.832 0 16-7.168 16-16s-7.168-16-16-16zm-96 64H144c-8.832 0-16 7.168-16 16s7.168 16 16 16h128c8.832 0 16-7.168 16-16s-7.168-16-16-16z" fill="#90a4ae" data-original="#90a4ae" xmlns="http://www.w3.org/2000/svg"/><path xmlns="http://www.w3.org/2000/svg" d="M265.472 348.896c-2.816 2.08-6.144 3.104-9.472 3.104s-6.656-1.024-9.472-3.104L0 192v288c0 17.664 14.336 32 32 32h448c17.664 0 32-14.336 32-32V192L265.472 348.896z" fill="#6197d0" data-original="#1e88e5"/><path xmlns="http://www.w3.org/2000/svg" d="M480 512H32c-17.952 0-32-14.048-32-32a16.02 16.02 0 016.528-12.896l240-160c2.816-2.08 6.144-3.104 9.472-3.104s6.656 1.024 9.472 3.104l240 160A16.02 16.02 0 01512 480c0 17.952-14.048 32-32 32z" fill="#74b0ef" data-original="#2196f3"/></symbol><symbol viewBox="0 0 469.333 469.333" id="eye" xmlns="http://www.w3.org/2000/svg"><g xmlns="http://www.w3.org/2000/svg" fill="#66a7de"><path d="M234.667 170.667c-35.307 0-64 28.693-64 64s28.693 64 64 64 64-28.693 64-64-28.694-64-64-64z" data-original="#000000"/><path d="M234.667 74.667C128 74.667 36.907 141.013 0 234.667c36.907 93.653 128 160 234.667 160 106.773 0 197.76-66.347 234.667-160-36.907-93.654-127.894-160-234.667-160zm0 266.666c-58.88 0-106.667-47.787-106.667-106.667S175.787 128 234.667 128s106.667 47.787 106.667 106.667-47.787 106.666-106.667 106.666z" data-original="#000000"/></g></symbol><symbol viewBox="0 0 32 32" id="github" xmlns="http://www.w3.org/2000/svg"><path xmlns="http://www.w3.org/2000/svg" d="M26 32H6a6 6 0 01-6-6V6a6 6 0 016-6h20a6 6 0 016 6v20a6 6 0 01-6 6z" fill="#66a7de" data-original="#e3f8fa"/><path xmlns="http://www.w3.org/2000/svg" d="M16 8.333c-4.42 0-8 3.52-8 7.861 0 3.474 2.292 6.42 5.47 7.458.4.074.547-.169.547-.378 0-.187-.007-.681-.01-1.336-2.225.474-2.695-1.055-2.695-1.055-.364-.907-.89-1.15-.89-1.15-.725-.487.056-.478.056-.478.803.055 1.225.81 1.225.81.713 1.202 1.873.855 2.33.654.072-.508.278-.855.507-1.051-1.777-.197-3.644-.873-3.644-3.885 0-.858.31-1.559.823-2.109-.09-.198-.36-.998.07-2.081 0 0 .67-.211 2.2.806a7.795 7.795 0 012-.265c.68.004 1.36.09 2 .265 1.52-1.017 2.19-.806 2.19-.806.43 1.083.16 1.882.08 2.081.51.55.82 1.251.82 2.109 0 3.02-1.87 3.685-3.65 3.878.28.236.54.718.54 1.454 0 1.052-.01 1.897-.01 2.153 0 .206.14.452.55.373C21.71 22.611 24 19.663 24 16.195c0-4.342-3.582-7.862-8-7.862z" fill="#fff" data-original="#26c6da"/></symbol><symbol viewBox="0 0 32 32" id="phone" xmlns="http://www.w3.org/2000/svg"><path xmlns="http://www.w3.org/2000/svg" d="M26 32H6a6 6 0 01-6-6V6a6 6 0 016-6h20a6 6 0 016 6v20a6 6 0 01-6 6z" fill="#74b0ef" data-original="#ffe6e2"/><path xmlns="http://www.w3.org/2000/svg" d="M23.942 19.842c-.11-.632-.651-1.135-1.315-1.224l-3.686-.493a1.55 1.55 0 00-1.608.86c-.071.152-.13.31-.178.473-1.033-.431-1.96-1.053-2.759-1.852s-1.422-1.726-1.852-2.759c.163-.048.321-.107.473-.178.596-.277.949-.938.859-1.607l-.493-3.686c-.089-.665-.592-1.206-1.235-1.317a3.686 3.686 0 00-.614-.057c-1.21 0-2.355.64-2.987 1.669-.684 1.115-.589 2.541-.43 3.659.36 2.532 1.661 5.078 3.569 6.986a12.444 12.444 0 005.068 3.073c.966.302 2.175.617 3.34.617.871 0 1.717-.176 2.416-.667A3.514 3.514 0 0024 20.467c0-.185-.018-.381-.058-.625z" fill="#fff" data-original="#fc573b"/></symbol><symbol viewBox="0 0 512 512" id="telegram" xmlns="http://www.w3.org/2000/svg"><rect width="512" height="512" rx="15%" fill="#37aee2"/><path fill="#c8daea" d="M199 404c-11 0-10-4-13-14l-32-105 245-144"/><path fill="#a9c9dd" d="M199 404c7 0 11-4 16-8l45-43-56-34"/><path fill="#f6fbfe" d="M204 319l135 99c14 9 26 4 30-14l55-258c5-22-9-32-24-25L79 245c-21 8-21 21-4 26l83 26 190-121c9-5 17-3 11 4"/></symbol><symbol viewBox="0 0 96 96" id="vkontakte" xmlns="http://www.w3.org/2000/svg"><path d="M53.174 52.908c-1.539-.896-3.678-.896-5.416-.896h-5.707v11.76h5.238c1.939 0 4.412.139 6.084-1.035 1.535-1.033 2.404-3.061 2.404-4.992 0-1.794-1.068-3.94-2.603-4.837zm-2.153-10.043c1.27-.967 1.936-2.691 1.936-4.279 0-1.725-.801-3.381-2.27-4.277-1.537-.896-4.346-.689-6.15-.689h-2.486v10.35h3.289c1.871-.001 4.078.137 5.681-1.105zM79.125 0H16.873C7.555 0 0 7.555 0 16.875v62.25C0 88.443 7.555 96 16.873 96h62.252C88.443 96 96 88.443 96 79.125v-62.25C96 7.555 88.443 0 79.125 0zM50.604 72.535H30.992V25.201H52.42c6.207 0 11.934 3.951 11.934 10.92 0 5.381-3.004 9.066-6.836 10.211v.139c5.682 1.174 9.74 4.26 9.74 11.705 0 6.89-4.692 14.359-16.654 14.359z" data-original="#030104" class="hactive-path" data-old_color="#030104" fill="#5287C3"/></symbol></svg>